<svg width="20" height="20" viewBox="0 0 20 20" fill="none" xmlns="http://www.w3.org/2000/svg">
<path d="M16.8246 4.71709L12.9704 0.862915C12.8981 0.790649 12.8003 0.75 12.6979 0.75H4.60414C3.7539 0.75 3.0625 1.4414 3.0625 2.29168V17.7084C3.0625 18.5586 3.7539 19.25 4.60418 19.25H15.3959C16.2461 19.25 16.9375 18.5586 16.9375 17.7083V4.98957C16.9375 4.88721 16.8969 4.78936 16.8246 4.71709ZM13.0833 2.06585L15.6217 4.60418H13.8541C13.4292 4.60418 13.0833 4.25828 13.0833 3.83336V2.06585ZM16.1667 17.7083C16.1667 18.1332 15.8208 18.4791 15.3959 18.4791H4.60418C4.17926 18.4791 3.83336 18.1332 3.83336 17.7083V2.29168C3.83336 1.86676 4.17926 1.52086 4.60418 1.52086H12.3125V3.83336C12.3125 4.6836 13.0039 5.375 13.8542 5.375H16.1667V17.7083Z" fill="white"/>
<path d="M11.9651 12.0644C11.6083 11.7836 11.2692 11.495 11.0433 11.2691C10.7498 10.9756 10.4882 10.691 10.2608 10.42C10.6154 9.32437 10.7709 8.75944 10.7709 8.4583C10.7709 7.17899 10.3086 6.91663 9.61461 6.91663C9.08729 6.91663 8.45836 7.19062 8.45836 8.4952C8.45836 9.07032 8.7734 9.76852 9.39781 10.58C9.245 11.0463 9.06546 11.5842 8.86373 12.1905C8.76661 12.4815 8.66124 12.751 8.54981 13.0001C8.45912 13.0404 8.37102 13.0814 8.28597 13.124C7.9796 13.2772 7.68866 13.4149 7.41878 13.5429C6.18799 14.1255 5.375 14.5109 5.375 15.272C5.375 15.8245 5.97535 16.1666 6.53125 16.1666C7.24787 16.1666 8.32998 15.2095 9.12038 13.597C9.94089 13.2734 10.9609 13.0336 11.766 12.8834C12.4111 13.3795 13.1236 13.8541 13.4688 13.8541C14.4244 13.8541 14.625 13.3016 14.625 12.8383C14.625 11.927 13.5839 11.927 13.0833 11.927C12.9279 11.9271 12.5109 11.973 11.9651 12.0644ZM6.53125 15.3958C6.31106 15.3958 6.16201 15.2919 6.14582 15.272C6.14582 14.9987 6.96069 14.6126 7.74885 14.2392C7.7989 14.2155 7.84974 14.1918 7.9013 14.1673C7.32241 15.0067 6.74993 15.3958 6.53125 15.3958ZM9.22918 8.4952C9.22918 7.68748 9.47987 7.68748 9.61461 7.68748C9.88712 7.68748 10 7.68748 10 8.4583C10 8.6209 9.89164 9.0274 9.69327 9.662C9.39062 9.19603 9.22918 8.79669 9.22918 8.4952ZM9.52464 12.6377C9.54874 12.5707 9.57208 12.5029 9.59466 12.4344C9.73768 12.0054 9.86642 11.6199 9.98121 11.2729C10.1412 11.4491 10.3136 11.6294 10.4984 11.8141C10.5706 11.8864 10.7498 12.049 10.9884 12.2526C10.5134 12.3561 10.0079 12.4845 9.52464 12.6377ZM13.8542 12.8383C13.8542 13.0114 13.8542 13.0833 13.4966 13.0856C13.3916 13.063 13.1488 12.92 12.8492 12.716C12.958 12.7039 13.0382 12.6979 13.0833 12.6979C13.6528 12.6979 13.8143 12.7536 13.8542 12.8383Z" fill="white"/>
</svg>
