<svg width="24" height="24" viewBox="0 0 24 24" fill="none" xmlns="http://www.w3.org/2000/svg">
<path d="M11.559 17.606C11.5594 16.568 11.8394 15.5494 12.3697 14.6571C12.9001 13.7649 13.6611 13.032 14.5727 12.5357C15.4843 12.0394 16.5128 11.798 17.55 11.8368C18.5873 11.8756 19.5949 12.1933 20.4668 12.7563C20.473 12.3285 20.4763 11.872 20.4763 11.3794C20.4763 8.8467 20.3901 7.26596 20.2199 5.62862H20.2441C20.15 4.71624 19.8016 3.84862 19.2385 3.12457C18.6754 2.40052 17.9203 1.84913 17.0592 1.5332C17.0137 1.51598 16.9682 1.49957 16.9223 1.48398C16.582 1.3696 16.2301 1.29298 15.8731 1.25553L15.839 1.25184C14.4769 1.11197 14.2583 1 11.386 1C8.51364 1 8.04893 1.11197 6.68803 1.25389L6.65399 1.25758C6.27918 1.29694 5.91019 1.37952 5.55436 1.50367V1.48522C4.66712 1.78688 3.88498 2.3366 3.30065 3.06923C2.71632 3.80186 2.35431 4.68667 2.25752 5.61877C2.08689 7.2594 1.99994 8.84178 1.99994 11.3794C1.99994 13.9171 2.08689 15.4994 2.25752 17.1401C2.37403 18.2596 2.87204 19.305 3.66799 20.1009C4.46394 20.8968 5.50941 21.3947 6.62897 21.5111L6.66301 21.5148C8.02514 21.6567 8.24334 21.7687 11.1157 21.7687C12.0672 21.7687 12.7563 21.7564 13.2973 21.7346C12.7464 21.1975 12.3087 20.5555 12.0101 19.8463C11.7116 19.1372 11.5582 18.3754 11.559 17.606ZM6.76022 6.46123H15.7143C15.9735 6.46123 16.222 6.56417 16.4052 6.74739C16.5884 6.93061 16.6913 7.17911 16.6913 7.43823C16.6913 7.69734 16.5884 7.94584 16.4052 8.12906C16.222 8.31229 15.9735 8.41522 15.7143 8.41522H6.76227C6.50315 8.41522 6.25465 8.31229 6.07143 8.12906C5.88821 7.94584 5.78527 7.69734 5.78527 7.43823C5.78527 7.17911 5.88821 6.93061 6.07143 6.74739C6.25465 6.56417 6.50315 6.46123 6.76227 6.46123H6.76022ZM6.76022 12.5959C6.50451 12.5907 6.26105 12.4854 6.08207 12.3028C5.90308 12.1201 5.80283 11.8745 5.80283 11.6187C5.80283 11.363 5.90308 11.1174 6.08207 10.9347C6.26105 10.752 6.50451 10.6468 6.76022 10.6415H11.8671C11.9971 10.6389 12.1263 10.6622 12.2472 10.7101C12.3681 10.758 12.4782 10.8296 12.5711 10.9206C12.664 11.0116 12.7378 11.1202 12.7882 11.2401C12.8385 11.36 12.8645 11.4887 12.8645 11.6187C12.8645 11.7488 12.8385 11.8775 12.7882 11.9974C12.7378 12.1173 12.664 12.2259 12.5711 12.3169C12.4782 12.4079 12.3681 12.4795 12.2472 12.5274C12.1263 12.5753 11.9971 12.5986 11.8671 12.5959H6.76022Z" fill="white"/>
<path d="M11.559 17.606C11.5594 16.568 11.8394 15.5494 12.3697 14.6571C12.9001 13.7649 13.6611 13.032 14.5727 12.5357C15.4843 12.0394 16.5128 11.798 17.55 11.8368C18.5873 11.8756 19.5949 12.1933 20.4668 12.7563C20.473 12.3285 20.4763 11.872 20.4763 11.3794C20.4763 8.8467 20.3901 7.26596 20.2199 5.62862H20.2441C20.15 4.71624 19.8016 3.84862 19.2385 3.12457C18.6754 2.40052 17.9203 1.84913 17.0592 1.5332C17.0137 1.51598 16.9682 1.49957 16.9223 1.48398C16.582 1.3696 16.2301 1.29298 15.8731 1.25553L15.839 1.25184C14.4769 1.11197 14.2583 1 11.386 1C8.51364 1 8.04893 1.11197 6.68803 1.25389L6.65399 1.25758C6.27918 1.29694 5.91019 1.37952 5.55436 1.50367V1.48522C4.66712 1.78688 3.88498 2.3366 3.30065 3.06923C2.71632 3.80186 2.35431 4.68667 2.25752 5.61877C2.08689 7.2594 1.99994 8.84178 1.99994 11.3794C1.99994 13.9171 2.08689 15.4994 2.25752 17.1401C2.37403 18.2596 2.87204 19.305 3.66799 20.1009C4.46394 20.8968 5.50941 21.3947 6.62897 21.5111L6.66301 21.5148C8.02514 21.6567 8.24334 21.7687 11.1157 21.7687C12.0672 21.7687 12.7563 21.7564 13.2973 21.7346C12.7464 21.1975 12.3087 20.5555 12.0101 19.8463C11.7116 19.1372 11.5582 18.3754 11.559 17.606ZM6.76022 6.46123H15.7143C15.9735 6.46123 16.222 6.56417 16.4052 6.74739C16.5884 6.93061 16.6913 7.17911 16.6913 7.43823C16.6913 7.69734 16.5884 7.94584 16.4052 8.12906C16.222 8.31229 15.9735 8.41522 15.7143 8.41522H6.76227C6.50315 8.41522 6.25465 8.31229 6.07143 8.12906C5.88821 7.94584 5.78527 7.69734 5.78527 7.43823C5.78527 7.17911 5.88821 6.93061 6.07143 6.74739C6.25465 6.56417 6.50315 6.46123 6.76227 6.46123H6.76022ZM6.76022 12.5959C6.50451 12.5907 6.26105 12.4854 6.08207 12.3028C5.90308 12.1201 5.80283 11.8745 5.80283 11.6187C5.80283 11.363 5.90308 11.1174 6.08207 10.9347C6.26105 10.752 6.50451 10.6468 6.76022 10.6415H11.8671C11.9971 10.6389 12.1263 10.6622 12.2472 10.7101C12.3681 10.758 12.4782 10.8296 12.5711 10.9206C12.664 11.0116 12.7378 11.1202 12.7882 11.2401C12.8385 11.36 12.8645 11.4887 12.8645 11.6187C12.8645 11.7488 12.8385 11.8775 12.7882 11.9974C12.7378 12.1173 12.664 12.2259 12.5711 12.3169C12.4782 12.4079 12.3681 12.4795 12.2472 12.5274C12.1263 12.5753 11.9971 12.5986 11.8671 12.5959H6.76022Z" fill="white"/>
<path d="M17.333 13.2121C16.4639 13.2121 15.6144 13.4698 14.8918 13.9526C14.1692 14.4354 13.606 15.1216 13.2734 15.9245C12.9409 16.7274 12.8539 17.6109 13.0234 18.4633C13.1929 19.3156 13.6114 20.0986 14.2259 20.7131C14.8405 21.3276 15.6234 21.7461 16.4757 21.9156C17.3281 22.0852 18.2116 21.9982 19.0145 21.6656C19.8174 21.333 20.5036 20.7698 20.9865 20.0472C21.4693 19.3246 21.727 18.4751 21.727 17.6061C21.727 16.4407 21.264 15.3231 20.44 14.499C19.616 13.675 18.4983 13.2121 17.333 13.2121ZM19.0745 18.2492H17.2456C17.1069 18.2492 16.9739 18.1941 16.8758 18.096C16.7778 17.9979 16.7227 17.8649 16.7227 17.7262V14.9167C16.7227 14.778 16.7778 14.645 16.8758 14.5469C16.9739 14.4488 17.1069 14.3937 17.2456 14.3937C17.3843 14.3937 17.5173 14.4488 17.6154 14.5469C17.7135 14.645 17.7686 14.778 17.7686 14.9167V17.2033H19.0745C19.2132 17.2033 19.3462 17.2584 19.4443 17.3565C19.5424 17.4545 19.5974 17.5875 19.5974 17.7262C19.5974 17.8649 19.5424 17.9979 19.4443 18.096C19.3462 18.1941 19.2132 18.2492 19.0745 18.2492Z" fill="white"/>
<path d="M17.333 13.2121C16.4639 13.2121 15.6144 13.4698 14.8918 13.9526C14.1692 14.4354 13.606 15.1216 13.2734 15.9245C12.9409 16.7274 12.8539 17.6109 13.0234 18.4633C13.1929 19.3156 13.6114 20.0986 14.2259 20.7131C14.8405 21.3276 15.6234 21.7461 16.4757 21.9156C17.3281 22.0852 18.2116 21.9982 19.0145 21.6656C19.8174 21.333 20.5036 20.7698 20.9865 20.0472C21.4693 19.3246 21.727 18.4751 21.727 17.6061C21.727 16.4407 21.264 15.3231 20.44 14.499C19.616 13.675 18.4983 13.2121 17.333 13.2121ZM19.0745 18.2492H17.2456C17.1069 18.2492 16.9739 18.1941 16.8758 18.096C16.7778 17.9979 16.7227 17.8649 16.7227 17.7262V14.9167C16.7227 14.778 16.7778 14.645 16.8758 14.5469C16.9739 14.4488 17.1069 14.3937 17.2456 14.3937C17.3843 14.3937 17.5173 14.4488 17.6154 14.5469C17.7135 14.645 17.7686 14.778 17.7686 14.9167V17.2033H19.0745C19.2132 17.2033 19.3462 17.2584 19.4443 17.3565C19.5424 17.4545 19.5974 17.5875 19.5974 17.7262C19.5974 17.8649 19.5424 17.9979 19.4443 18.096C19.3462 18.1941 19.2132 18.2492 19.0745 18.2492Z" fill="white"/>
</svg>
